<svg height="155.031" width="158.52" xmlns="http://www.w3.org/2000/svg"><path d="M13.72 126.985c7.433 24.962 46.188 16.32 66.407 16.32 25.195 0 44.852.535 54.736-6.463 13.037-9.231 11.908-26.698 11.908-45.238 0-40.995 7.142-51.652-5.449-69.562-10.824-15.394-32.858-12.506-57-12.76-25.167-.264-42.371-1.572-51.48 2.297-22.156 9.404-22.52 28.483-22.52 50.036.001 22.855-4.056 40.333 3.398 65.37z" fill="#2FACDF"/><path d="M126.517 40.568c-4.242 20.19-11.927 62.689-14.979 72.813-2.019 6.698-8.149 8.522-14.309 4.394-12.477-8.362-36.026-24.089-36.026-24.089l-8.848-8.445s-22.512-2.598-28.69-4.875c-6.941-2.558-5.11-10.706-.007-13.365 19.715-10.272 72.607-29.027 88.792-35.112 7.906-2.973 15.945-.261 14.067 8.679z" fill="#FFF"/><path d="M108.525 49.57L52.356 85.24l8.73 29.802 2.461-20.989S108.772 53.4 110.626 51.67c1.853-1.729-2.101-2.1-2.101-2.1z" fill="#C5E5EB"/><path d="M63.825 94.529l-2.599 22.991c1.952 1.172 13.642-13.848 13.642-13.848l-11.043-9.143z" fill="#A9C2CC"/><path d="M155.278 117.812c-.359-11.463-.655-22.937-1.049-34.4-.239-6.964-.419-13.934-.484-20.902-.081-8.824.684-17.595.811-26.411.106-7.342-.032-14.044-4.266-20.431-4.178-6.301-11.08-11.068-18.559-12.486-5.995-1.137-12.537-.539-18.587-.652-8.529-.16-17.062-.29-25.584-.698C79.344 1.438 71.223.156 62.984.235c-8.422.081-16.829.8-25.23 1.331-8.28.523-16.349.653-23.274 5.881-6.313 4.766-9.965 12.331-10.394 20.168-.839 15.326-.914 30.672-.994 46.016a646.91 646.91 0 01-.185 12.538c-.197 8.031.295 16.061.003 24.079-.228 6.252-.897 12.925.073 19.144 1.195 7.665 6.368 14.362 12.645 18.679 6.865 4.721 14.276 5.065 22.323 5.405 8.634.364 17.283.532 25.924.581 16.792.094 33.872.991 50.628-.221 4.015-.29 8.028-.823 12.052-.953 2.743-.089 5.353-.266 8.023-1.046 7.21-2.106 13.721-6.918 17.381-13.539 3.47-6.279 3.538-13.482 3.319-20.486zm-5.525-12.605c-.193 7.103-.832 14.197-1.328 21.284-.434 6.196-3.461 11.726-8.297 15.609-5.648 4.535-11.932 5.081-18.849 5.332-8.224.299-16.419.129-24.642.586-8.788.488-17.628-.082-26.421-.236-8.702-.153-17.405-.067-26.108-.182-7.537-.1-16.221.743-23.099-2.845-6.515-3.398-12.239-9.823-13.082-17.324-.747-6.642-.279-13.596-.095-20.262.213-7.689.612-15.371.838-23.059.36-12.235.171-24.507.439-36.794.163-7.463-.445-15.607.97-22.96 1.389-7.221 6.295-13.246 13.199-15.841 3.673-1.381 7.459-1.456 11.326-1.683 4.465-.262 8.928-.507 13.395-.72 8.623-.411 17.304-1.087 25.933-.629 17.055.904 34.107 1.791 51.175 2.413 12.293.448 23.378 9.066 23.444 22.043.086 16.916.27 33.774.918 50.678.315 8.203.507 16.381.284 24.59z"/><path d="M127.854 28.903c-2.393-.687-4.57.058-6.85.736-3.208.954-6.373 1.969-9.484 3.211-7.27 2.904-14.406 6.118-21.661 9.059-5.864 2.377-12.009 3.986-17.955 6.151-8.085 2.943-16.087 6.096-24.12 9.175-7.553 2.894-15.531 5.5-22.683 9.3-3.899 2.072-8.902 4.682-6.691 10.146 1.318 3.258 4.5 4.295 7.528 5.404 4.069 1.49 8.141 2.999 12.277 4.293 2.123.664 7.031 1.233 8.453 2.879.782.904.753 2.453.989 3.637.433 2.171.901 4.336 1.414 6.489 1.648 6.92 4.475 13.484 5.962 20.419.986 4.599 6.5 7.235 10.174 3.715 2.399-2.299 4.803-4.594 7.168-6.93 1.356-1.339 2.644-2.745 3.947-4.136.502-.536 1.011-1.066 1.509-1.607 1.308-1.423 1.176-1.28 2.712-.119 6.824 5.164 13.967 9.886 20.8 15.034 5.519 4.158 12.522 2.184 14.285-4.495 2.167-8.208 4.025-16.494 5.763-24.805 3.503-16.754 7.382-33.425 10.407-50.291.979-5.469 3.538-15.117-3.944-17.265zm-72.543 77.241c-.868-3.553-1.666-7.123-2.475-10.69-.336-1.481-.677-2.961-1.003-4.444-.149-.678-.728-1.407-.434-2.036.433-.923 1.8-.958 2.692-1.452 6.406-3.556 12.449-7.734 18.58-11.732 8.051-5.251 16.375-10.021 24.463-15.195-3.125 3.108-6.256 6.202-9.439 9.25-2.722 2.606-5.839 4.616-8.723 7.012-3.69 3.066-7.218 6.31-10.839 9.458l-5.981 5.199c-2.12 1.843-2.056 5.721-1.98 8.308.174 5.905-.889 11.728-1.759 17.567-1.181-3.714-2.177-7.46-3.102-11.245zm14.43 6.579c-2.139 2.158-4.318 4.276-6.449 6.441.958-6.775 1.435-13.598 2.232-20.394 3.302 2.73 6.666 5.388 10.003 8.076-1.929 1.959-3.851 3.925-5.786 5.877zm59.129-77.045c-.971 11.079-3.748 22.35-6.219 33.16-2.968 12.983-5.464 26.07-8.537 39.027a973.908 973.908 0 01-2.209 9.071c-.491 1.985-.593 4.251-2.125 5.701-1.943 1.838-4.56.285-6.336-1.03-2.787-2.063-5.715-3.885-8.63-5.76-2.607-1.677-5.149-3.454-7.674-5.254-2.508-1.789-4.404-4.214-6.774-6.146-4.329-3.529-8.89-6.835-13.498-9.989 2.999-2.678 5.994-5.361 9.023-8.005 1.564-1.365 3.198-2.643 4.729-4.049 2.966-2.723 18.242-17.692 23.282-22.111 2.671-2.342 4.8-4.636 7.219-7.234 2.722-2.924.203-6.77-4.171-4.04-5.167 3.225-16.197 8.782-24.237 13.947C75.9 67.34 69.08 71.703 62.261 76.067c-4.631 2.964-9.293 5.875-13.958 8.783-.529.33-2.905-1.15-3.548-1.416-2.238-.928-4.499-1.769-6.773-2.603-4.271-1.565-9.385-2.297-13.38-3.787-2.72-1.014-3.434-3.284-.854-4.84 4.667-2.815 10.38-4.535 15.418-6.584 12.033-4.895 24.113-9.749 36.331-14.167 5.659-2.046 11.488-3.451 17.06-5.745 5.696-2.344 11.247-5.025 16.945-7.359 4.552-1.864 9.093-3.555 13.796-4.996 1.747-.535 5.854-.892 5.572 2.325z"/></svg>