<svg height="155.031" width="158.52" xmlns="http://www.w3.org/2000/svg"><path d="M126.22 6.482c10.974 2.109 19.509 8.348 20.106 23.604.464 11.857 1.988 37.741 1.763 45.84-.469 16.854-.175 36.879-.4 46.538-.309 13.262-7.121 25.625-18.252 26.213-15.582.828-23.321.87-37.922.87-5.96 0-23.881 0-39.779-2.007-18.843-2.378-43.868 2.972-47.177-21.743-2.121-15.844-2.4-48.223-2.124-63.775.091-5.131 1.133-34.361 1.578-40.931.749-10.995 12.6-17.966 24.223-18.499 11.319-.517 77.515-.044 97.984 3.89z" fill="#0071BC"/><path d="M49.093 37.031c-6.14 0-10.156 5.986-10.156 11.242 0 5.157 3.902 9.23 9.92 9.23h.119c6.255 0 13.15-5.084 13.15-10.241-.119-5.256-6.895-10.231-13.033-10.231zm8.625 80.662H41.08s-5.839-45.612-2-51.244c4.735-6.946 18.639-2 18.639-2v53.244zm68.555 0c-3.524 3.131-20.857 0-20.857 0V90.144c0-7.214-2.953-12.132-9.442-12.132-4.963 0-6.717 3.319-8.01 6.526-.481 1.144-1.405 2.745-1.405 4.344 0 0 6.361 25.275 1 30.812-3.422 3.535-19.682 0-19.682 0s.236-50.807 0-55.244h18.682v8.358c1.109-3.655 8.076-11.867 17.608-11.867 11.812 0 24.938 10.684 24.106 27.148-.376 7.429 3.561 24.663-2 29.604z" fill="#FFF"/><path d="M49.175 41.013l-.688.038c-.232.01-.512.026-.731.073-.247.042-.52.063-.865.159-1.349.278-3.195 1.082-4.532 2.806-.674.855-1.124 1.985-1.296 3.264-.035.157-.029.324-.04.489l-.014.249-.013.125-.003.031-.002.016c.002.093-.004-.109-.003-.081l.001.079c.008.403-.005.918.042 1.151.018.281.059.628.117.979.08.337.142.693.275 1.024.437 1.373 1.491 2.58 2.864 3.302 1.347.789 2.987 1.087 4.674 1.081.311-.035.974-.02 1.308-.066.377-.037.761-.072 1.169-.167a8.139 8.139 0 002.265-.773 6.81 6.81 0 001.871-1.346 6.483 6.483 0 001.313-1.818 6.9 6.9 0 00.688-2.096c.075-.359.099-.724.118-1.087l.004-.135.001-.034c.001.037-.002-.106.003.078l-.002-.02-.007-.078-.027-.313c-.02-.202-.031-.429-.059-.605-.12-.616-.254-1.314-.527-1.903a7.142 7.142 0 00-.945-1.587 7.067 7.067 0 00-2.462-1.955c-.856-.399-1.662-.638-2.358-.737a9.102 9.102 0 00-1.634-.14l-.588-.002.083-.001zm-.082-3.966l.788.055c.51.03 1.271.122 2.221.352.95.208 2.101.624 3.293 1.342a10.564 10.564 0 013.347 3.211c.459.717.862 1.508 1.14 2.365.322.846.49 1.736.613 2.744.138 1.782-.005 3.896-.927 5.791a9.504 9.504 0 01-1.783 2.652c-.739.793-1.6 1.5-2.563 2.029-.951.552-1.987.957-3.047 1.211-.518.144-1.082.234-1.655.308-.615.085-.913.078-1.559.123-2.127.039-4.424-.339-6.41-1.44-2.01-1.043-3.655-2.804-4.582-4.798-.47-1.018-.789-1.984-.945-3.128-.106-.623-.098-.966-.134-1.407l-.005-.079-.001-.192.005-.19.019-.378c.017-.251.017-.5.063-.748.25-1.982.993-3.835 2.085-5.242a10.981 10.981 0 013.636-3.083c1.25-.65 2.416-1.024 3.378-1.198a13.347 13.347 0 012.254-.274l.688-.025.081-.001zm10.581 67.335l-.057-6.655c-.021-2.219-.114-4.437-.167-6.656-.125-4.437-.314-8.874-.49-13.311l-.091-3.328c-.025-1.109.006-2.218.006-3.328l.033-3.328c-.005-1.108.092-2.217.092-3.327v-.05c0-.68-.592-1.369-1.272-1.369h-.01l-8.319.214c-2.773.047-5.543.063-8.316.078-.589.005-1.083.517-1.083 1.109v.018l-.299 13.311-.149 6.656-.076 6.655-.077 6.655c-.036 2.219-.03 4.437-.1 6.656-.136 4.437-.25 8.874-.34 13.311a2.078 2.078 0 002.009 2.118l.112.004c1.387.045 2.773.027 4.16.033l4.16-.002 4.16-.053 4.16-.115.053-.001a1.989 1.989 0 001.931-1.982c.007-2.219.053-4.437.029-6.656l-.059-6.657zm-2.769-9.983c-.016 1.109-.009 2.219-.062 3.328l-.24 6.655c-.07 2.219-.239 4.437-.353 6.656-.091 1.529-.226 3.057-.355 4.586l-2.336-.109-4.16-.11c-1.386-.026-2.773-.026-4.16-.04-.621-.003-1.241-.01-1.862-.015a282.038 282.038 0 00-.118-4.312l-.195-6.655c-.074-2.219-.039-4.437-.064-6.656l-.032-6.655-.032-6.655-.133-6.656-.133-6.655c-.028-1.75-.09-3.5-.146-5.25.905.005 1.81.015 2.714.009 1.386-.007 2.773-.003 4.16-.04 2.39-.053 4.78-.089 7.169-.162.051 1.814.079 3.629.109 5.443.054 2.219.043 4.437.023 6.655-.001 1.109-.031 2.219-.008 3.328l.074 3.328.137 6.655c.034 1.109.014 2.218.003 3.327zm69.045 12.568c-.114-3.575-.073-7.151-.063-10.726.023-1.788-.012-3.575-.034-5.363l-.034-2.681-.129-2.776c-.154-1.853-.414-3.703-.849-5.53-.187-.917-.531-1.806-.781-2.712-.305-.892-.695-1.762-1.054-2.637-.868-1.69-1.824-3.363-3.115-4.795-1.225-1.481-2.727-2.715-4.292-3.832-.825-.494-1.629-1.04-2.518-1.411-.439-.195-.865-.43-1.317-.59l-1.36-.476c-.908-.319-1.847-.492-2.784-.718l-1.458-.214-.731-.103-.671-.043-1.338-.083c-.591-.025-.984.004-1.487.004-.477-.004-.954.027-1.43.09-.475.057-.953.088-1.424.187a22.382 22.382 0 00-5.541 1.611c-1.773.783-3.469 1.786-4.958 3.103-.151.137-.358.277-.506.419L88 64.449v-.031c0-.852-.648-1.536-1.5-1.528-1.557.016-3.084.005-4.641.042l-4.656.122c-.778.019-1.55.055-2.328.059l-2.332.013c-.778-.002-1.555.01-2.333-.016l-2.333-.08h-.001c-.744 0-1.363.58-1.383 1.324l-.004.162c-.121 4.432-.223 8.863-.285 13.287l-.057 3.32c-.011 1.106.027 2.211.037 3.317.064 2.21.193 4.421.263 6.633.016 1.105.05 2.213.033 3.323l-.083 3.327-.184 6.654c-.064 2.218-.163 4.436-.199 6.654a180 180 0 00-.022 6.654l.008.08v.007c0 1.023.861 1.836 1.884 1.815.778-.016 1.553-.001 2.332-.054.778-.028 1.555-.133 2.333-.198 1.557-.131 3.113-.133 4.67-.175a421.56 421.56 0 019.34-.128h.069c.753 0 1.347-.615 1.329-1.367-.023-.938-.047-1.861.024-2.799.079-.938.169-1.869.268-2.807.112-1.876.251-3.748.268-5.624l.063-2.812-.03-2.813-.06-5.627.136-5.627c.029-.929.021-1.914.103-2.715.058-.424.057-.47.133-.863l.204-.609.008-.014.07-.129.138-.257c.715-1.389 1.723-2.502 2.819-3.266l.414-.288c.145-.082.306-.132.455-.203.298-.143.603-.321.857-.352.132-.036.262-.078.392-.126l.196-.076c.088-.02.226-.023.336-.036l1.295-.117.038.002.139.007.277.012c.182.014.377-.002.547.037.348.058.711.085 1.027.193.671.151 1.244.442 1.773.792 1.049.705 1.831 1.869 2.358 3.292.248.72.448 1.483.583 2.289.07.405.136.808.164 1.194l.062.593.029.703.025.64.011.703.022 1.407.043 2.814.086 5.628c.013 1.876.084 3.752.158 5.628.057 1.876.169 3.752.204 5.628.053 1.876.011 3.752-.017 5.628-.014.98.757 1.8 1.742 1.838l.1.004 4.714.183c1.571.078 3.143.083 4.714.126l4.714-.042 2.357-.023 2.357.079.176.173h.006c1.043 0 1.85-1.114 1.802-2.157-.165-3.577-.215-7.333-.307-10.909zm-3.283-16.088c-.059.894-.19 1.788-.26 2.682-.081.894-.119 1.788-.177 2.681-.112 1.788-.22 3.575-.277 5.363a138.96 138.96 0 00-.014 5.363c.007 1.788.029 3.575.098 5.363.022 1.157.099 2.314.163 3.471l-.284.013-2.357.025-4.714.046c-1.571-.044-3.143-.048-4.714-.131l-2.566-.103a72.727 72.727 0 00-.036-3.587c-.054-1.876-.201-3.752-.306-5.628-.191-3.752-.129-7.503-.184-11.255-.022-1.895-.014-3.71-.061-5.67l-.024-.703-.065-.772a15.956 15.956 0 00-.192-1.525 17.34 17.34 0 00-.757-3.001c-.711-1.963-1.939-3.925-3.817-5.208-.923-.631-1.956-1.12-3.017-1.374-.528-.164-1.06-.221-1.592-.302-.267-.05-.528-.039-.792-.058l-.395-.017-.198-.008-.099-.004-.049-.002-.172.009-1.401.127c-.12.013-.227.015-.357.038l-.423.104-.845.222c-.586.126-1.064.38-1.558.619-.241.129-.493.242-.722.387l-.656.487c-1.74 1.313-2.968 3.106-3.744 4.991l-.148.354-.074.177-.009.022-.046.129-.01.043-.021.086-.181.68a11.525 11.525 0 00-.187 1.675l-.044 2.866-.307 5.628-.226 5.628a199.493 199.493 0 00-.17 5.628c-.007 1.876-.19 3.752-.245 5.628-.005.938.043 1.876.011 2.814.002.133-.016.267-.026.4l-2.53.039c-1.557.011-3.114.081-4.67.134-1.557.06-3.114.098-4.67.189l-2.932.151a214.996 214.996 0 01-.124-4.747c-.041-1.11.009-2.219.022-3.328l.061-3.328.124-6.656.062-3.328c.008-1.108-.039-2.22-.065-3.334l-.192-6.676c-.087-2.224-.107-4.448-.115-6.673l-.041-6.674.037-5.058.827.009c.778.015 1.557.045 2.335.14l1.168.121c.389.052.778.042 1.168.064.778.029 1.557-.032 2.335-.044l2.335-.168c.778-.068 1.557-.1 2.335-.108.778-.033 1.557 0 2.335.011l.696.013-.128 6.78a1.761 1.761 0 003.422.618l.037-.105c.411-1.167 1.45-2.413 2.637-3.396 1.197-1.006 2.616-1.796 4.101-2.402a18.664 18.664 0 014.686-1.22c.399-.076.81-.087 1.215-.125.406-.034.811-.079 1.222-.084l.614-.025.307-.013.077-.013.038-.012h.003l.116.014 1.34.052.668.027.579.077 1.16.142c.78.173 1.594.3 2.358.541l1.154.351c.386.117.74.303 1.113.449.759.273 1.429.707 2.135 1.083 1.331.867 2.617 1.843 3.651 3.081 1.106 1.173 1.937 2.591 2.717 4.033.32.761.676 1.509.958 2.292.236.803.537 1.584.705 2.412.389 1.641.625 3.328.767 5.034l.117 2.578c.013.893.024 1.787-.023 2.681z"/><path d="M74.021 3.488l6.12-.172c3.984-.133 9.859-.225 17.327-.241 7.466-.049 16.538-.037 26.942.247l8.059.241c2.892.076 6.01.647 8.952 1.826a23.115 23.115 0 018.148 5.427c2.37 2.419 4.227 5.433 5.442 8.713a29.869 29.869 0 011.381 5.082c.147.869.274 1.745.36 2.626.082.88.138 1.786.179 2.59.195 3.319.326 6.698.306 10.141-.07 3.449-.147 6.959-.259 10.525-.068 3.563-.036 7.177.168 10.835.096 3.665.478 7.362.664 11.137l.164 2.842.034 2.896c.008 1.895.014 3.81-.073 5.729-.123 3.84-.583 7.722-.763 11.631-.254 3.914-.151 7.866-.07 11.857.083 3.995.146 8.016.307 12.08l.177 6.129.045 1.54c.019.617-.003 1.053-.003 1.589-.061 1.16-.158 2.281-.363 3.375-.376 2.21-1.07 4.372-2.015 6.425-.954 2.051-2.206 3.956-3.626 5.725-2.871 3.512-6.561 6.422-10.86 8.233a26.87 26.87 0 01-3.318 1.154 25.727 25.727 0 01-3.501.641c-.297.034-.598.049-.896.073l-.463.032-.395.015-1.579.061-3.162.095c-2.114.055-4.214.144-6.347.172l-6.403.087a926.62 926.62 0 01-25.601-.258l-12.752-.078c-4.233-.182-8.462-.297-12.684-.236l-3.167-.025c-1.119-.003-2.136-.048-3.208-.07-2.113-.04-4.24-.13-6.365-.232-2.121-.144-4.244-.085-6.35-.118l-6.314-.062-6.313-.181-.788-.024-.431-.015-.39-.03-.779-.061-.844-.107a23.681 23.681 0 01-3.259-.673c-4.267-1.182-8.13-3.533-11.268-6.543a28.663 28.663 0 01-7.029-10.834 25.103 25.103 0 01-1.401-6.371c-.143-2.07-.223-4.028-.407-6.031-.446-8.046-1.236-15.928-1.212-23.629-.043-7.708.46-15.234.842-22.552l.611-10.82.455-10.479c.172-6.888.033-13.545.056-19.952l.045-4.773c.059-1.609.015-3.106.301-4.868.525-3.332 1.812-6.358 3.443-9.029 3.295-5.329 8.022-9.342 13.262-11.478 2.611-1.079 5.345-1.692 8.028-1.815l7.026-.151 6.458-.136 3.014-.092c.981-.021 1.939.017 2.872.022 3.734.06 7.071.185 9.972.289 2.9.064 5.367.144 7.365.134l6.125-.079.008-.001zm.025 1.454l-1.56.067c-1.03.034-2.559.106-4.55.28-1.992.161-4.445.452-7.325.864-2.88.435-6.187.918-9.894 1.377-.928.119-1.879.278-2.857.374-.978.111-1.982.141-3.009.242l-6.443.55-6.956.594c-1.963.186-3.948.81-5.938 1.661-3.929 1.781-7.891 4.806-10.698 8.957-1.437 2.032-2.567 4.37-3.145 6.811-.292 1.044-.397 2.698-.548 4.169-.146 1.516-.242 3.102-.34 4.677-.157 3.175-.403 6.424-.458 9.743-.054 3.317-.021 6.7-.04 10.143l-.31 10.524-.443 10.815c-.621 14.597-1.044 30.093-.152 45.901l.437 5.962a21.103 21.103 0 001.262 5.298 24.458 24.458 0 006.136 9.127c2.705 2.516 5.974 4.404 9.483 5.283.862.22 1.793.397 2.629.484l.625.069.781.047.39.023c-.1-.01.083-.002.11-.003l.193.002.771.009 6.183.064 6.265-.051c1.047-.006 2.093-.016 3.128-.043.519-.027 1.038-.01 1.558.039l1.56.107c2.076.151 4.17.288 6.299.376 1.037.046 2.17.116 3.13.142l3.208.081c4.275-.04 8.559.243 12.831.516 4.283.144 8.532.189 12.787.276 1.065.016 2.129.009 3.194-.009l1.597-.019c.255-.005.557-.002.774-.014l.797-.036 6.375-.285c4.248-.211 8.476-.36 12.687-.603 2.101-.142 4.198-.263 6.295-.323 2.096-.079 4.219-.222 6.323-.329l3.159-.174 1.578-.071.394-.017.316-.025.664-.055c1.773-.196 3.545-.673 5.245-1.369 6.82-2.817 12.285-9.106 13.74-16.101.203-.881.301-1.759.384-2.563l.039-.767.019-.383.003-.299.011-1.522.038-6.063-.016-12.06c.01-3.995-.005-7.978-.119-11.915-.139-3.948-.22-7.821-.19-11.667-.024-1.924.076-3.826.101-5.737l.037-2.737-.021-2.787-.114-11.066c-.107-7.303-.334-14.417-.507-21.303-.089-3.449-.197-6.837-.236-10.159a61.612 61.612 0 00-.071-2.356c-.044-.755-.124-1.5-.218-2.24a24.879 24.879 0 00-.983-4.274c-.896-2.737-2.298-5.22-4.138-7.252-1.835-2.035-4.069-3.634-6.481-4.756-2.429-1.122-4.974-1.755-7.601-1.967l-7.979-.683a585.316 585.316 0 00-14.485-.967c-4.479-.238-8.595-.474-12.317-.527-7.44-.14-13.281-.171-17.278-.121l-6.116.044z"/></svg>